<?xml version="1.0" encoding="UTF-8"?> <svg xmlns="http://www.w3.org/2000/svg" width="265" height="105" viewBox="0 0 265 105"> <g fill="#202020" fill-rule="evenodd"> <path d="M0 52.81v-4.202h10.17v4.87c0 4.457 1.863 6.686 5.587 6.686 3.725 0 5.587-2.229 5.587-6.685 0-1.91-.39-3.709-1.17-5.396a17.993 17.993 0 0 0-3.008-4.56 57.906 57.906 0 0 0-4.083-4.058c-1.496-1.353-3-2.77-4.512-4.25a39.323 39.323 0 0 1-4.106-4.703c-1.226-1.656-2.229-3.63-3.009-5.921-.78-2.292-1.17-4.76-1.17-7.401 0-5.507 1.345-9.75 4.035-12.725C7.011 1.488 10.951 0 16.14 0c5.189 0 9.128 1.488 11.818 4.465 2.69 2.976 4.035 7.218 4.035 12.725v2.196h-10.17v-2.865c0-4.488-1.8-6.732-5.396-6.732-1.783 0-3.12.533-4.011 1.6-.892 1.066-1.337 2.777-1.337 5.132 0 1.91.39 3.709 1.17 5.396a17.993 17.993 0 0 0 3.008 4.56 57.906 57.906 0 0 0 4.082 4.058 137.735 137.735 0 0 1 4.489 4.25 40.576 40.576 0 0 1 4.082 4.703c1.226 1.656 2.229 3.63 3.008 5.921.78 2.292 1.17 4.76 1.17 7.401 0 5.507-1.368 9.75-4.106 12.725C25.243 68.512 21.264 70 16.044 70s-9.2-1.488-11.938-4.465C1.37 62.56 0 58.317 0 52.81zm35.382 16.426L46.317.764h15.757l10.934 68.472H62.17l-1.862-12.415H47.08l-1.862 12.415h-9.836zM48.465 47.51h10.362L53.67 12.892 48.465 47.51zm29.51 21.726V.764h16.234c5.507 0 9.542 1.29 12.104 3.868 2.563 2.578 3.844 6.541 3.844 11.89v5.395c0 7.035-2.356 11.666-7.067 13.895 2.578 1.082 4.417 2.833 5.515 5.252 1.098 2.42 1.647 5.523 1.647 9.311v10.553c0 3.788.382 6.557 1.146 8.308h-10.934a27.67 27.67 0 0 1-.525-1.79c-.096-.398-.2-1.162-.31-2.293-.112-1.13-.168-2.57-.168-4.32V50.088c0-3.152-.557-5.396-1.671-6.733-1.114-1.337-2.897-2.005-5.348-2.005h-3.724v27.885H77.974zM88.717 31.61h4.202c2.132 0 3.74-.55 4.822-1.648 1.082-1.098 1.624-2.968 1.624-5.61v-6.733c0-2.45-.43-4.241-1.29-5.371-.86-1.13-2.244-1.695-4.154-1.695h-5.204V31.61zm25.736 37.626L125.39.764h15.757l10.934 68.472h-10.839l-1.862-12.415h-13.226l-1.862 12.415h-9.837zm13.084-21.726h10.361l-5.157-34.618-5.204 34.618zm29.508 21.726V.764h28.459v9.789H167.79V31.18h13.895v9.789H167.79v28.267h-10.744zm30.798 0L198.78.764h15.757l10.935 68.472h-10.84l-1.862-12.415h-13.226l-1.862 12.415h-9.837zm13.084-21.726h10.361l-5.157-34.618-5.204 34.618zm29.413 21.726V.764h13.465l11.078 41.016V.764h9.598v68.472h-11.078l-13.37-49.563v49.563h-9.693zM140.95 99.917c-2.442 0-4.544-.896-6.306-2.687-1.763-1.791-2.644-3.922-2.644-6.393 0-2.513.888-4.658 2.665-6.435 1.777-1.777 3.922-2.666 6.436-2.666s4.655.892 6.425 2.677c1.77 1.784 2.655 3.947 2.655 6.49 0 2.499-.9 4.626-2.698 6.381-1.799 1.755-3.977 2.633-6.534 2.633zm30.887 4.55V81.036h-7.944v-5.503h22.455v5.503h-7.943v23.431h-6.568zm19.038 0V75.533h18.107v5.503h-11.583v5.813h9.852v5.459h-9.852v6.656h12.026v5.503h-18.55zm36.39.533c-1.834 0-3.564-.318-5.192-.954a12.2 12.2 0 0 1-4.282-2.818c-1.228-1.243-2.197-2.789-2.907-4.638-.71-1.849-1.065-3.986-1.065-6.412 0-2.397.37-4.534 1.11-6.413.739-1.879 1.73-3.47 2.973-4.77a12.531 12.531 0 0 1 4.349-2.974A13.65 13.65 0 0 1 227.488 75c1.863 0 3.535.377 5.014 1.132 1.48.754 2.707 1.634 3.684 2.64l-3.462 4.172a11.076 11.076 0 0 0-2.33-1.664c-.813-.43-1.738-.644-2.773-.644-.977 0-1.901.215-2.774.644a6.587 6.587 0 0 0-2.263 1.841c-.636.8-1.14 1.775-1.51 2.93-.369 1.153-.554 2.455-.554 3.905 0 2.988.636 5.303 1.908 6.945 1.273 1.642 2.974 2.463 5.104 2.463 1.183 0 2.241-.259 3.173-.777a9.812 9.812 0 0 0 2.463-1.93l3.462 4.083c-2.427 2.84-5.548 4.26-9.364 4.26zm13.758-.533V75.533h6.524v11.139h9.985v-11.14h6.568v28.935h-6.568v-12.07h-9.985v12.07h-6.524z"></path> </g> </svg> 