<?xml version="1.0" encoding="UTF-8" standalone="no"?> <svg xmlns="http://www.w3.org/2000/svg" xmlns:xlink="http://www.w3.org/1999/xlink" width="172px" height="41px" viewBox="0 0 172 41"> <!-- Generator: Sketch 46.1 (44463) - http://www.bohemiancoding.com/sketch --> <title>Page 1</title> <desc>Created with Sketch.</desc> <defs> <polygon id="path-1" points="4.82320889e-16 21.0014 4.82320889e-16 0.0024 18.17895 0.0024 18.17895 21.0014 0 21.0014"></polygon> <polygon id="path-3" points="17.597 21.3011 17.597 0.0021 0.8882 0.0021 0.8882 21.3011"></polygon> </defs> <g id="Page-1" stroke="none" stroke-width="1" fill="none" fill-rule="evenodd"> <g> <g id="Group-3" transform="translate(22.000000, -0.000200)" fill="#13A546"> <path d="M17.8299,29.0001 C11.4789,29.0001 6.3299,23.8521 6.3299,17.5001 C6.3299,11.1491 11.4789,6.0001 17.8299,6.0001 C24.1809,6.0001 29.3299,11.1491 29.3299,17.5001 C29.3299,23.8521 24.1809,29.0001 17.8299,29.0001 M35.3299,17.5001 C35.3299,7.8351 27.4949,9.99999998e-05 17.8299,9.99999998e-05 C8.1649,9.99999998e-05 0.3299,7.8351 0.3299,17.5001 C0.3299,27.1651 8.1649,35.0001 17.8299,35.0001 C21.6409,35.0001 25.1649,33.7781 28.0389,31.7091 L37.3299,41.0001 L41.3299,37.0001 L32.0389,27.7091 C34.1079,24.8351 35.3299,21.3111 35.3299,17.5001" id="Fill-1"></path> </g> <g id="Group-6" transform="translate(0.000000, 6.999800)"> <mask id="mask-2" fill="white"> <use xlink:href="#path-1"></use> </mask> <g id="Clip-5"></g> <path d="M7.9197,16.1114 L5.3697,16.1114 L5.3697,4.8924 L7.9197,4.8924 C14.6097,4.8924 14.6097,16.1114 7.9197,16.1114 M7.9197,0.0024 L-0.0003,0.0024 L-0.0003,21.0014 L7.9197,21.0014 C21.5987,20.9414 21.5987,0.0624 7.9197,0.0024" id="Fill-4" fill="#2C2B67" mask="url(#mask-2)"></path> </g> <g id="Group-9" transform="translate(154.000000, 6.999800)"> <mask id="mask-4" fill="white"> <use xlink:href="#path-3"></use> </mask> <g id="Clip-8"></g> <path d="M12.4072,0.0021 L12.4072,13.9211 C12.4072,15.6311 10.7872,16.4711 9.2272,16.4711 C7.6672,16.4711 6.0172,15.6311 6.0172,13.9211 L6.0172,0.0021 L0.8882,0.0021 L0.8882,14.0111 C0.8882,18.6311 4.9372,21.3011 9.2272,21.3011 C13.5472,21.3011 17.5972,18.6311 17.5972,14.0111 L17.5972,0.0021 L12.4072,0.0021 Z" id="Fill-7" fill="#2C2B67" mask="url(#mask-4)"></path> </g> <path d="M127.138,22.6612 C125.458,22.6612 124.138,23.7712 124.138,25.4512 C124.138,27.1012 125.458,28.1812 127.138,28.1812 C128.758,28.1812 130.078,27.1012 130.078,25.4512 C130.078,23.7712 128.758,22.6612 127.138,22.6612" id="Fill-10" fill="#2C2B67"></path> <path d="M143.3076,16.9914 L139.4676,16.9914 L139.4676,11.8014 C140.7276,11.8014 142.0476,11.7714 143.3076,11.8014 C146.3676,11.8314 146.2176,16.9914 143.3076,16.9914 L143.3076,16.9914 Z M147.7476,20.5614 C153.0576,16.9614 151.5576,7.0314 143.3076,7.0014 L134.0976,7.0014 L134.0976,28.0014 L139.4676,28.0014 L139.4676,21.8214 L142.2576,21.8214 L145.8576,28.0014 L151.8576,28.0014 L151.8576,27.2214 L147.7476,20.5614 Z" id="Fill-12" fill="#2C2B67"></path> <path d="M73.0184,23.3212 C69.8384,23.2912 67.7984,20.5912 67.7984,17.5012 C67.7984,14.0212 69.8684,11.6522 73.0184,11.6522 C75.2684,11.6522 76.8584,12.6112 77.6084,14.7412 L82.8884,14.7412 C82.0784,9.1322 77.3684,6.7622 73.0184,6.7622 C67.6784,6.7622 62.2784,10.3612 62.2484,17.5012 C62.2784,24.6412 67.6784,28.2412 73.0184,28.2112 C77.4884,28.2112 82.1984,25.8712 82.9784,19.9312 L77.6984,19.9312 C77.1284,22.1812 75.2984,23.3212 73.0184,23.3212" id="Fill-14" fill="#2C2B67"></path> <path d="M115.258,20.9213 C115.258,22.6313 113.638,23.4713 112.078,23.4713 C110.518,23.4713 108.868,22.6313 108.868,20.9213 L108.868,7.0023 L103.738,7.0023 L103.738,21.0113 C103.738,25.6313 107.788,28.3013 112.078,28.3013 C116.398,28.3013 120.448,25.6313 120.448,21.0113 L120.448,7.0023 L115.258,7.0023 L115.258,20.9213 Z" id="Fill-16" fill="#2C2B67"></path> <polygon id="Fill-18" fill="#2C2B67" points="85.0187 11.8017 90.1787 11.8017 90.1787 28.0007 95.4887 28.0007 95.4887 11.8017 100.6177 11.8017 100.6177 7.0017 85.0187 7.0017"></polygon> </g> </g> </svg> 